<?xml version="1.0" encoding="UTF-8" standalone="no"?>
<!-- Generated by IcoMoon.io -->

<svg
   xmlns:dc="http://purl.org/dc/elements/1.1/"
   xmlns:cc="http://creativecommons.org/ns#"
   xmlns:rdf="http://www.w3.org/1999/02/22-rdf-syntax-ns#"
   xmlns:svg="http://www.w3.org/2000/svg"
   xmlns="http://www.w3.org/2000/svg"
   xmlns:sodipodi="http://sodipodi.sourceforge.net/DTD/sodipodi-0.dtd"
   xmlns:inkscape="http://www.inkscape.org/namespaces/inkscape"
   version="1.1"
   width="32"
   height="32"
   viewBox="0 0 32 32"
   id="svg6"
   sodipodi:docname="pause.svg"
   inkscape:version="0.92.2 2405546, 2018-03-11">
  <metadata
     id="metadata12">
    <rdf:RDF>
      <cc:Work
         rdf:about="">
        <dc:format>image/svg+xml</dc:format>
        <dc:type
           rdf:resource="http://purl.org/dc/dcmitype/StillImage" />
        <dc:title>pause</dc:title>
      </cc:Work>
    </rdf:RDF>
  </metadata>
  <defs
     id="defs10" />
  <sodipodi:namedview
     pagecolor="#ffffff"
     bordercolor="#666666"
     borderopacity="1"
     objecttolerance="10"
     gridtolerance="10"
     guidetolerance="10"
     inkscape:pageopacity="0"
     inkscape:pageshadow="2"
     inkscape:window-width="1916"
     inkscape:window-height="1044"
     id="namedview8"
     showgrid="false"
     inkscape:zoom="7.375"
     inkscape:cx="16.271186"
     inkscape:cy="16"
     inkscape:window-x="0"
     inkscape:window-y="32"
     inkscape:window-maximized="0"
     inkscape:current-layer="svg6" />
  <title
     id="title2">pause</title>
  <path
     d="M11 0h-6c-0.553 0-1 0.448-1 1v30c0 0.553 0.447 1 1 1h6c0.553 0 1-0.447 1-1v-30c0-0.552-0.447-1-1-1zM27 0h-6c-0.553 0-1 0.448-1 1v30c0 0.553 0.447 1 1 1h6c0.553 0 1-0.447 1-1v-30c0-0.552-0.447-1-1-1z"
     id="path4" />
  <rect
     style="fill:#ffffff"
     id="rect3728"
     width="31.186441"
     height="4.6101694"
     x="0.67796606"
     y="1.6163966e-08" />
  <rect
     style="fill:#ffffff"
     id="rect3728-3"
     width="31.186441"
     height="4.6101694"
     x="0.813559"
     y="27.38983" />
</svg>
